<svg width="25" height="24" viewBox="0 0 25 24" fill="none" xmlns="http://www.w3.org/2000/svg">
<path d="M23.2717 11.5022C22.2775 7.0074 20.7813 4.60834 18.5617 3.95302C18.0952 3.81617 17.6112 3.7478 17.125 3.75005C16.4823 3.75005 15.9227 3.90662 15.3306 4.07255C14.6172 4.27271 13.8067 4.50005 12.625 4.50005C11.4433 4.50005 10.6323 4.27318 9.91751 4.07302C9.325 3.90662 8.76579 3.75005 8.125 3.75005C7.62224 3.74831 7.12166 3.81646 6.63766 3.95255C4.42985 4.60505 2.93454 7.00318 1.92579 11.4994C0.841098 16.3379 1.375 19.3927 3.42297 20.1015C3.7037 20.2004 3.99907 20.2514 4.29672 20.2524C5.69969 20.2524 6.82469 19.0838 7.59344 18.1271C8.46204 17.0443 9.47875 16.4949 12.625 16.4949C15.4352 16.4949 16.5981 16.876 17.6027 18.1271C18.2341 18.9136 18.8308 19.464 19.4261 19.8104C20.2178 20.2707 21.0091 20.3729 21.7773 20.109C22.9877 19.696 23.6814 18.6043 23.8398 16.8633C23.9603 15.5283 23.7747 13.7747 23.2717 11.5022ZM10.375 11.2501H8.875V12.7501C8.875 12.949 8.79599 13.1397 8.65533 13.2804C8.51468 13.421 8.32392 13.5001 8.125 13.5001C7.92609 13.5001 7.73533 13.421 7.59467 13.2804C7.45402 13.1397 7.375 12.949 7.375 12.7501V11.2501H5.875C5.67609 11.2501 5.48533 11.171 5.34468 11.0304C5.20402 10.8897 5.125 10.699 5.125 10.5001C5.125 10.3011 5.20402 10.1104 5.34468 9.96972C5.48533 9.82907 5.67609 9.75005 5.875 9.75005H7.375V8.25005C7.375 8.05114 7.45402 7.86038 7.59467 7.71972C7.73533 7.57907 7.92609 7.50005 8.125 7.50005C8.32392 7.50005 8.51468 7.57907 8.65533 7.71972C8.79599 7.86038 8.875 8.05114 8.875 8.25005V9.75005H10.375C10.5739 9.75005 10.7647 9.82907 10.9053 9.96972C11.046 10.1104 11.125 10.3011 11.125 10.5001C11.125 10.699 11.046 10.8897 10.9053 11.0304C10.7647 11.171 10.5739 11.2501 10.375 11.2501ZM14.3125 11.4376C14.1271 11.4376 13.9458 11.3826 13.7917 11.2796C13.6375 11.1765 13.5173 11.0301 13.4464 10.8588C13.3754 10.6875 13.3568 10.499 13.393 10.3172C13.4292 10.1353 13.5185 9.96825 13.6496 9.83714C13.7807 9.70603 13.9478 9.61674 14.1296 9.58057C14.3115 9.54439 14.5 9.56296 14.6713 9.63392C14.8426 9.70487 14.989 9.82504 15.092 9.97921C15.195 10.1334 15.25 10.3146 15.25 10.5001C15.25 10.7487 15.1512 10.9872 14.9754 11.163C14.7996 11.3388 14.5611 11.4376 14.3125 11.4376ZM16.375 13.5001C16.1895 13.5001 16.0081 13.445 15.8539 13.3419C15.6997 13.2388 15.5795 13.0922 15.5086 12.9208C15.4378 12.7493 15.4193 12.5607 15.4557 12.3788C15.4921 12.1969 15.5816 12.0298 15.7129 11.8988C15.8443 11.7678 16.0115 11.6787 16.1935 11.6428C16.3756 11.6069 16.5641 11.6258 16.7354 11.6971C16.9067 11.7684 17.0529 11.8889 17.1556 12.0434C17.2584 12.1979 17.313 12.3794 17.3125 12.5649C17.3119 12.8131 17.2128 13.051 17.0371 13.2263C16.8613 13.4016 16.6232 13.5001 16.375 13.5001ZM16.375 9.37505C16.1896 9.37505 16.0083 9.32007 15.8542 9.21706C15.7 9.11404 15.5798 8.96763 15.5089 8.79632C15.4379 8.62501 15.4193 8.43651 15.4555 8.25466C15.4917 8.0728 15.581 7.90575 15.7121 7.77464C15.8432 7.64353 16.0103 7.55424 16.1921 7.51807C16.374 7.48189 16.5625 7.50046 16.7338 7.57142C16.9051 7.64237 17.0515 7.76254 17.1545 7.91671C17.2575 8.07088 17.3125 8.25213 17.3125 8.43755C17.3125 8.68619 17.2137 8.92465 17.0379 9.10047C16.8621 9.27628 16.6236 9.37505 16.375 9.37505ZM18.4375 11.4376C18.2521 11.4376 18.0708 11.3826 17.9167 11.2796C17.7625 11.1765 17.6423 11.0301 17.5714 10.8588C17.5004 10.6875 17.4818 10.499 17.518 10.3172C17.5542 10.1353 17.6435 9.96825 17.7746 9.83714C17.9057 9.70603 18.0728 9.61674 18.2546 9.58057C18.4365 9.54439 18.625 9.56296 18.7963 9.63392C18.9676 9.70487 19.114 9.82504 19.217 9.97921C19.32 10.1334 19.375 10.3146 19.375 10.5001C19.375 10.7487 19.2762 10.9872 19.1004 11.163C18.9246 11.3388 18.6861 11.4376 18.4375 11.4376Z" fill="#7D7D7D"/>
</svg>
